<?xml version="1.0" standalone="no"?>
<!DOCTYPE svg PUBLIC "-//W3C//DTD SVG 20010904//EN"
 "http://www.w3.org/TR/2001/REC-SVG-20010904/DTD/svg10.dtd">
<svg version="1.0" xmlns="http://www.w3.org/2000/svg"
 width="1080.000000pt" height="1080.000000pt" viewBox="0 0 1080.000000 1080.000000"
 preserveAspectRatio="xMidYMid meet">

<g transform="translate(0.000000,1080.000000) scale(0.100000,-0.100000)"
fill="#000000" stroke="none">
<path d="M3168 6664 c-125 -30 -258 -125 -328 -234 -40 -62 -76 -167 -83 -240
-6 -54 5 -169 18 -202 6 -15 -3 -18 -87 -20 -85 -3 -93 -5 -93 -23 0 -18 8
-20 100 -23 79 -2 103 -6 113 -19 26 -36 16 -44 -53 -41 -68 3 -90 -7 -79 -35
5 -14 22 -17 99 -17 87 0 94 -1 109 -25 9 -13 16 -27 16 -30 0 -4 -65 -5 -145
-4 -149 2 -174 -3 -162 -35 6 -14 33 -16 192 -16 176 0 187 -1 223 -23 216
-134 497 -102 675 76 107 107 157 230 157 387 0 150 -52 274 -159 381 -134
134 -328 188 -513 143z m107 -66 c15 -32 33 -33 46 -4 15 32 43 33 134 5 54
-17 65 -23 60 -37 -11 -29 -10 -34 8 -45 15 -10 21 -9 32 6 18 24 36 14 104
-57 l53 -56 -24 -20 c-21 -17 -22 -20 -7 -35 13 -13 21 -15 37 -6 19 10 22 6
40 -42 11 -29 22 -73 24 -97 3 -41 1 -45 -20 -48 -32 -5 -27 -46 6 -50 22 -3
23 -7 17 -45 -4 -23 -15 -64 -24 -92 -16 -47 -20 -50 -48 -47 -38 4 -50 -21
-22 -46 19 -19 19 -19 -22 -65 -22 -26 -54 -56 -71 -68 -28 -20 -31 -21 -40
-6 -5 10 -18 17 -29 17 -17 0 -20 -5 -17 -32 3 -32 2 -33 -62 -55 -88 -30
-116 -30 -124 2 -4 16 -13 25 -26 25 -13 0 -22 -9 -26 -25 -7 -29 -25 -31 -99
-11 -80 21 -92 30 -87 65 3 25 1 31 -14 31 -9 0 -26 -7 -35 -16 -17 -16 -22
-12 -86 51 -60 60 -65 69 -50 80 9 7 17 22 17 34 0 19 -5 22 -32 19 -30 -3
-33 0 -49 43 -9 25 -20 66 -24 92 -7 44 -6 47 14 47 29 0 39 29 16 46 -10 7
-22 11 -26 8 -13 -8 -11 25 5 86 25 96 34 114 51 100 8 -7 22 -10 30 -6 20 7
19 43 -2 54 -15 9 -13 14 15 46 38 44 97 96 107 96 4 0 13 -7 20 -17 20 -27
49 -9 42 26 -6 27 -3 31 36 45 67 24 70 24 107 25 27 1 38 -4 45 -21z"/>
<path d="M3201 6449 c-79 -24 -166 -103 -203 -184 -33 -75 -31 -190 6 -267
119 -246 460 -249 585 -6 28 55 34 78 34 135 1 89 -25 162 -82 225 -64 72
-127 101 -226 104 -44 2 -95 -1 -114 -7z m69 -129 c0 -49 -2 -90 -3 -90 -9 0
-100 141 -94 146 6 6 77 33 90 34 4 0 7 -40 7 -90z m266 -53 c3 -10 4 -20 2
-21 -9 -8 -158 -54 -158 -49 0 3 23 37 52 75 l51 70 23 -29 c13 -15 26 -36 30
-46z m-411 -104 l80 -26 -67 -23 c-36 -12 -76 -25 -87 -29 -20 -6 -21 -3 -21
49 0 31 3 56 7 56 5 0 44 -12 88 -27z m361 -117 l65 -22 -31 -42 c-16 -23 -33
-42 -38 -42 -6 1 -76 93 -97 129 -8 15 -10 15 101 -23z m-216 -92 l0 -86 -37
7 c-78 14 -78 18 -22 95 28 39 52 70 55 70 2 0 4 -39 4 -86z"/>
<path d="M7899 6465 c-288 -93 -320 -455 -52 -591 52 -26 68 -29 153 -29 78 0
104 4 147 24 l52 23 -30 59 c-16 32 -31 59 -33 59 -2 0 -20 -7 -39 -15 -52
-22 -132 -19 -184 6 -48 23 -90 83 -100 142 -6 42 24 116 62 149 54 47 143 60
220 33 22 -8 41 -15 42 -15 5 0 53 100 53 110 0 6 -21 20 -46 32 -61 27 -183
33 -245 13z"/>
<path d="M4130 6160 l0 -310 70 0 70 0 0 125 0 125 100 0 100 0 0 60 0 60
-100 0 -100 0 0 60 c0 41 4 60 13 61 6 1 17 2 22 4 6 1 49 3 98 3 l87 2 0 60
0 60 -180 0 -180 0 0 -310z"/>
<path d="M4597 6462 c-3 -4 -5 -143 -5 -310 l0 -302 179 0 179 0 0 60 0 60
-105 0 -105 0 0 250 0 250 -69 0 c-39 0 -72 -3 -74 -8z"/>
<path d="M5060 6160 l0 -310 175 0 175 0 0 60 0 60 -105 0 -105 0 0 65 0 65
100 0 100 0 0 60 0 60 -100 0 -100 0 0 65 0 65 105 0 105 0 0 60 0 60 -175 0
-175 0 0 -310z"/>
<path d="M5530 6160 l0 -310 175 0 175 0 0 60 0 60 -105 0 -105 0 0 65 0 65
100 0 c108 0 102 -4 102 60 0 64 6 60 -102 60 l-101 0 3 63 3 62 100 0 100 0
3 63 3 62 -176 0 -175 0 0 -310z"/>
<path d="M5960 6410 c0 -41 4 -60 13 -61 6 0 40 0 75 1 l62 1 0 -250 0 -251
70 0 70 0 2 248 3 247 43 2 c23 0 56 2 72 2 30 1 30 1 30 61 l0 60 -220 0
-220 0 0 -60z"/>
<path d="M6490 6160 l0 -310 70 0 70 0 0 121 0 122 93 -121 92 -121 166 0 165
-1 21 58 20 57 120 3 120 3 23 -61 22 -60 75 0 c67 0 74 2 69 18 -4 9 -59 149
-124 309 l-117 293 -65 0 -66 0 -119 -295 c-121 -300 -131 -323 -138 -315 -2
3 -48 58 -102 123 -54 65 -96 119 -94 120 84 56 118 110 119 184 0 53 -14 91
-48 126 -40 41 -107 57 -249 57 l-123 0 0 -310z m212 190 c42 -12 58 -34 58
-77 0 -41 -19 -63 -65 -73 -67 -16 -65 -18 -65 75 0 95 0 95 72 75z m646 -172
l30 -78 -69 0 -69 0 26 68 c14 37 28 75 31 85 8 26 18 12 51 -75z"/>
<path d="M8290 6160 l0 -310 175 0 175 0 0 60 0 60 -105 0 -105 0 0 65 0 65
100 0 100 0 0 60 0 60 -100 0 -100 0 0 65 0 65 105 0 105 0 0 60 0 60 -175 0
-175 0 0 -310z"/>
<path d="M2562 5862 c-17 -3 -22 -9 -20 -25 5 -38 77 -33 78 5 0 12 -34 24
-58 20z"/>
</g>
</svg>
