<svg version="1.1" id="Layer_1" xmlns="http://www.w3.org/2000/svg" xmlns:xlink="http://www.w3.org/1999/xlink" x="0px" y="0px"
	 width="100%" viewBox="0 0 1080 1080" enable-background="new 0 0 1080 1080" xml:space="preserve">
<path fill="#FFFFFF" opacity="1.000000" stroke="none" 
	d="
M577.000000,1081.000000 
	C384.688812,1081.000000 192.877609,1081.000000 1.033205,1081.000000 
	C1.033205,721.063660 1.033205,361.127350 1.033205,1.095518 
	C360.894745,1.095518 720.789551,1.095518 1080.842163,1.095518 
	C1080.842163,360.999939 1080.842163,720.999939 1080.842163,1081.000000 
	C913.126892,1081.000000 745.313416,1081.000000 577.000000,1081.000000 
M557.979492,460.754242 
	C558.003906,461.498840 558.028320,462.243408 557.939758,463.921112 
	C557.939758,481.212006 557.939758,498.502899 557.939758,515.845703 
	C562.873413,515.845703 566.989746,515.845703 571.788330,515.648621 
	C571.851013,509.519501 571.913757,503.390411 572.078796,496.455841 
	C572.041931,495.918701 572.005066,495.381561 572.648987,494.454956 
	C574.034180,495.368500 575.419373,496.282013 576.966919,497.660034 
	C577.113953,497.972198 577.346252,498.195831 577.873474,498.975922 
	C579.539185,501.026611 581.204895,503.077301 583.063049,505.787842 
	C584.346436,507.524048 585.852966,509.139862 586.867615,511.020996 
	C589.126831,515.209534 592.420959,516.457336 597.102539,516.141785 
	C603.390015,515.718018 609.727600,516.035400 616.043640,516.036011 
	C624.076294,516.036743 624.204346,516.083191 626.987793,508.308777 
	C628.157532,505.041595 629.749512,503.473663 633.464661,503.748962 
	C638.264648,504.104584 643.114685,503.960510 647.935242,503.796692 
	C650.846130,503.697754 652.664185,504.581238 653.448975,507.554230 
	C653.996887,509.629883 654.741272,511.722260 655.814392,513.564514 
	C656.437927,514.635071 657.842102,515.845154 658.968201,515.922180 
	C663.072632,516.203003 667.207825,516.033203 671.810425,516.033203 
	C671.088989,513.919434 670.632568,512.342224 670.021179,510.827576 
	C663.549500,494.794312 657.065918,478.765869 650.558655,462.747009 
	C646.656006,453.139893 646.125183,452.767853 636.031494,454.125336 
	C634.910706,454.276062 634.002686,456.007843 632.819763,457.250732 
	C632.819763,457.250732 632.849182,457.550537 632.327393,458.070648 
	C631.496704,460.362854 630.665955,462.655029 629.930786,464.953644 
	C629.930786,464.953644 629.885498,464.869293 629.317932,465.270050 
	C627.271912,470.535400 625.225891,475.800751 623.049194,481.142365 
	C623.049194,481.142365 623.113403,481.279358 622.647888,481.753937 
	C618.121033,492.800751 613.594177,503.847534 609.269897,514.400024 
	C606.659790,512.105652 604.327332,510.055420 601.806335,507.359161 
	C598.567871,503.364349 595.524902,499.187683 592.029968,495.431519 
	C589.166931,492.354523 588.606079,490.564667 592.764404,487.905609 
	C598.881775,483.993774 600.978027,477.743439 600.289673,470.582611 
	C599.637817,463.801910 596.821411,458.541168 589.475037,455.689911 
	C588.594971,455.474701 587.714844,455.259521 586.201904,454.685394 
	C584.469238,454.521423 582.736511,454.357422 580.207092,454.020874 
	C579.124756,454.069244 578.042358,454.117615 576.036865,454.047699 
	C570.709717,454.082306 565.382629,454.116882 559.245117,454.081055 
	C558.847656,456.058044 558.450256,458.035065 557.979492,460.754242 
M476.546875,477.200317 
	C476.514740,473.763062 476.482635,470.325836 476.743591,466.803741 
	C476.743591,466.803741 476.919464,466.554443 477.852142,466.728577 
	C484.424957,466.728577 490.997772,466.728577 497.476807,466.728577 
	C497.476807,462.072571 497.476807,458.188232 497.476807,454.352905 
	C485.508453,454.352905 473.972565,454.352905 462.288452,454.352905 
	C462.288452,462.174377 462.288452,469.614960 462.154541,477.843201 
	C462.197754,478.904541 462.240967,479.965851 462.092346,481.943207 
	C462.092346,493.192780 462.092346,504.442352 462.092346,515.701965 
	C474.349579,515.701965 485.902100,515.701965 497.495239,515.701965 
	C497.495239,511.445862 497.495239,507.577759 497.495239,503.309753 
	C491.617920,503.309753 486.145264,503.402771 480.680115,503.240875 
	C479.398987,503.202942 477.444733,502.651337 476.990845,501.741821 
	C474.285461,496.321045 477.304718,491.492676 483.183441,491.464539 
	C486.679840,491.447815 490.182404,491.594513 493.669373,491.416443 
	C494.707703,491.363403 495.702545,490.459106 496.844238,489.054596 
	C496.804291,486.056061 496.764343,483.057556 496.687469,479.311127 
	C490.095062,479.153564 483.502625,478.996033 476.629669,478.424408 
	C476.505493,478.313171 476.381287,478.201965 476.546875,477.200317 
M382.981293,501.020172 
	C382.981293,485.445557 382.981293,469.870911 382.981293,454.178162 
	C377.855255,454.178162 373.564423,454.178162 368.856598,454.178162 
	C368.856598,474.791473 368.856598,495.179504 368.856598,515.716309 
	C380.718750,515.716309 392.281006,515.716309 403.917175,515.716309 
	C403.917175,511.441528 403.917175,507.544464 403.917175,503.216400 
	C396.614960,503.216400 389.798615,503.216400 382.949127,502.566742 
	C382.903687,502.354706 382.858276,502.142700 382.981293,501.020172 
M772.685242,488.392700 
	C772.704651,485.622955 772.724060,482.853210 772.700684,479.329681 
	C769.826843,479.049713 766.954712,478.551331 764.078796,478.527985 
	C752.369995,478.432953 752.369568,478.486603 753.601807,466.633728 
	C754.151855,466.551178 754.701965,466.468658 756.080261,466.696136 
	C759.965027,466.591614 763.849792,466.487091 768.539001,466.575806 
	C769.351685,466.490295 770.164429,466.404785 771.716736,466.637115 
	C772.422302,466.134216 773.711609,465.661011 773.739014,465.123566 
	C773.921204,461.547363 773.833496,457.957428 773.833496,454.313354 
	C761.592468,454.313354 750.052307,454.313354 738.415405,454.313354 
	C738.415405,474.997375 738.415405,495.329773 738.415405,515.728394 
	C750.348816,515.728394 761.887024,515.728394 773.504150,515.728394 
	C773.504150,511.481171 773.504150,507.618744 773.504150,503.314606 
	C769.475403,503.314606 765.847534,503.314636 762.219666,503.314606 
	C753.329163,503.314545 753.334045,503.314087 752.555847,494.431183 
	C752.513550,493.949127 752.276978,493.484100 752.537170,492.083038 
	C752.668579,491.771942 752.799988,491.460815 753.853455,491.355957 
	C759.096558,491.394897 764.343994,491.555328 769.579163,491.369965 
	C770.621155,491.333038 771.616333,489.973114 772.685242,488.392700 
M298.231964,508.794525 
	C307.394226,486.642426 302.360870,462.122437 285.514984,446.843842 
	C268.139160,431.084534 242.991913,427.714417 222.799332,438.439056 
	C199.855865,450.624725 190.938141,471.591736 195.577026,503.096893 
	C191.387054,503.096893 187.260056,503.031830 183.136444,503.122162 
	C180.797379,503.173431 177.349564,502.246399 177.456207,506.028198 
	C177.562714,509.804901 181.068756,508.597198 183.346024,508.683777 
	C187.172684,508.829193 191.013779,508.819885 194.840393,508.666138 
	C197.726349,508.550171 199.586975,509.918610 199.405396,512.553711 
	C199.343567,513.450623 196.622955,514.592896 194.992020,514.860901 
	C191.927872,515.364258 188.772598,515.312866 185.655212,515.492188 
	C185.566437,516.216919 185.477661,516.941650 185.388885,517.666443 
	C187.182251,518.345459 188.935226,519.431580 190.777832,519.614380 
	C194.078781,519.941956 197.447586,519.921265 200.762344,519.685242 
	C204.504517,519.418945 206.598831,521.023132 207.821503,524.965210 
	C199.537781,524.965210 191.593536,524.884094 183.652756,525.014465 
	C181.254654,525.053894 177.529510,523.771606 177.646896,527.874817 
	C177.675705,528.881836 181.670792,530.514771 183.886002,530.590820 
	C193.040100,530.905273 202.214005,530.604675 211.373474,530.826416 
	C213.718979,530.883118 216.323364,531.545898 218.326752,532.739380 
	C247.978897,550.404480 282.361816,540.412354 298.231964,508.794525 
M697.564636,499.067535 
	C690.324829,492.135681 688.419739,484.129974 693.067505,476.700165 
	C694.981628,473.640198 698.083374,470.896912 701.269226,469.144745 
	C708.545715,465.142822 715.998352,466.977692 723.315063,470.465149 
	C725.363464,466.380005 727.203979,462.709595 728.989746,459.148254 
	C717.865601,449.145203 695.961731,451.486115 684.125427,463.603302 
	C672.317749,475.691193 672.057739,493.673218 683.513489,505.916473 
	C695.385620,518.604736 717.314758,521.181152 729.016541,511.007385 
	C727.107422,507.296448 725.162659,503.516235 723.166809,499.636658 
	C714.508850,503.903503 706.290588,504.811707 697.564636,499.067535 
M435.496033,516.022644 
	C440.416290,516.022644 445.336578,516.022644 450.605103,516.022644 
	C450.605103,513.148621 450.370239,510.977905 450.653625,508.877075 
	C451.256134,504.410553 449.487274,503.012878 445.086060,503.328949 
	C439.877838,503.702942 434.622192,503.416809 429.462524,503.416809 
	C429.462524,498.910187 429.462524,495.358765 429.462524,491.166199 
	C436.289490,491.166199 442.711884,491.166199 449.695526,491.166199 
	C449.695526,488.234589 449.481140,485.924133 449.743225,483.669067 
	C450.194580,479.785706 448.886353,478.265106 444.803284,478.535950 
	C439.737732,478.871918 434.632935,478.616394 429.420471,478.616394 
	C429.420471,474.262054 429.420471,470.701935 429.420471,466.625305 
	C436.539734,466.625305 443.294647,466.625305 450.246033,466.625305 
	C450.246033,462.221100 450.246033,458.343964 450.246033,454.452362 
	C438.331940,454.452362 426.787781,454.452362 415.298676,454.452362 
	C415.298676,475.120148 415.298676,495.364502 415.298676,516.022583 
	C421.912109,516.022583 428.205109,516.022583 435.496033,516.022644 
M322.314697,506.448792 
	C322.314697,509.529480 322.314697,512.610168 322.314697,515.710754 
	C327.522034,515.710754 331.933624,515.710754 336.988464,515.710754 
	C336.988464,507.498596 336.988464,499.609222 336.988464,491.193542 
	C343.891571,491.193542 350.147858,491.193542 356.580872,491.193542 
	C356.580872,486.864075 356.580872,483.094452 356.580872,478.548584 
	C350.003143,478.548584 343.643555,478.548584 337.196655,478.548584 
	C337.196655,474.219391 337.196655,470.673950 337.196655,466.499207 
	C344.475281,466.499207 351.358948,466.499207 358.203430,466.499207 
	C358.203430,462.090149 358.203430,458.320618 358.203430,454.352600 
	C346.232025,454.352600 334.532135,454.352600 322.315186,454.352600 
	C322.315186,471.615204 322.315186,488.540039 322.314697,506.448792 
M531.498657,454.030579 
	C522.914856,454.030579 514.331055,454.030579 505.827576,454.030579 
	C505.827576,458.703217 505.827576,462.577942 505.827576,466.903931 
	C510.702698,466.903931 515.134583,466.903931 520.168945,466.903931 
	C520.168945,483.408936 520.168945,499.462738 520.168945,515.755737 
	C525.200806,515.755737 529.611084,515.755737 534.352173,515.755737 
	C534.449158,514.045776 534.600830,512.590576 534.603394,511.135101 
	C534.627014,497.810425 534.724915,484.484497 534.562012,471.161835 
	C534.519348,467.667297 535.598022,466.362457 539.120605,466.668610 
	C542.220093,466.937988 545.361389,466.724884 548.716675,466.724884 
	C548.716675,462.252869 548.716675,458.379578 548.716675,454.030640 
	C543.086548,454.030640 537.792236,454.030640 531.498657,454.030579 
M180.012665,516.440552 
	C178.506531,512.649536 175.591675,513.579102 173.050293,514.737854 
	C172.421555,515.024536 172.684540,517.266968 172.537613,518.610352 
	C174.915649,518.465210 177.294968,518.335388 179.668503,518.136597 
	C179.808105,518.124878 179.901199,517.557983 180.012665,516.440552 
z"/>
<path fill="#8E5EEF" opacity="1.000000" stroke="none" 
	d="
M298.078125,509.140289 
	C282.361816,540.412354 247.978897,550.404480 218.326752,532.739380 
	C216.323364,531.545898 213.718979,530.883118 211.373474,530.826416 
	C202.214005,530.604675 193.040100,530.905273 183.886002,530.590820 
	C181.670792,530.514771 177.675705,528.881836 177.646896,527.874817 
	C177.529510,523.771606 181.254654,525.053894 183.652756,525.014465 
	C191.593536,524.884094 199.537781,524.965210 207.821503,524.965210 
	C206.598831,521.023132 204.504517,519.418945 200.762344,519.685242 
	C197.447586,519.921265 194.078781,519.941956 190.777832,519.614380 
	C188.935226,519.431580 187.182251,518.345459 185.388885,517.666443 
	C185.477661,516.941650 185.566437,516.216919 185.655212,515.492188 
	C188.772598,515.312866 191.927872,515.364258 194.992020,514.860901 
	C196.622955,514.592896 199.343567,513.450623 199.405396,512.553711 
	C199.586975,509.918610 197.726349,508.550171 194.840393,508.666138 
	C191.013779,508.819885 187.172684,508.829193 183.346024,508.683777 
	C181.068756,508.597198 177.562714,509.804901 177.456207,506.028198 
	C177.349564,502.246399 180.797379,503.173431 183.136444,503.122162 
	C187.260056,503.031830 191.387054,503.096893 195.577026,503.096893 
	C190.938141,471.591736 199.855865,450.624725 222.799332,438.439056 
	C242.991913,427.714417 268.139160,431.084534 285.514984,446.843842 
	C302.360870,462.122437 307.394226,486.642426 298.078125,509.140289 
M296.957489,481.457764 
	C295.603210,476.059967 294.248932,470.662170 293.096649,466.069550 
	C289.996277,465.665466 288.158691,465.425964 286.321106,465.186493 
	C286.935028,463.191467 287.548950,461.196442 288.162872,459.201447 
	C288.639618,458.887512 289.116333,458.573608 289.593079,458.259674 
	C285.338501,453.912384 281.083954,449.565063 276.829376,445.217773 
	C276.464355,445.803833 276.099335,446.389862 275.734314,446.975922 
	C273.862427,447.597656 271.990540,448.219391 270.118652,448.841125 
	C269.729889,446.923065 269.341125,445.005005 268.707489,441.878967 
	C263.746429,440.577911 257.779572,439.013123 252.835754,437.716614 
	C250.781311,440.185486 249.615082,441.586975 248.448868,442.988464 
	C246.971695,441.493195 245.494507,439.997955 243.154755,437.629547 
	C238.285690,439.033661 232.528320,440.693909 226.770950,442.354156 
	C227.064941,442.752594 227.358932,443.151062 227.652924,443.549530 
	C227.258072,445.287384 226.863220,447.025238 226.468384,448.763092 
	C224.609879,448.245422 222.751373,447.727753 220.892853,447.210083 
	C220.507156,446.577698 220.121475,445.945312 219.735779,445.312927 
	C215.396759,449.680206 211.057739,454.047485 206.718719,458.414795 
	C207.302170,458.799500 207.885605,459.184204 208.469040,459.568909 
	C209.154266,461.260010 209.839478,462.951111 210.524689,464.642212 
	C208.511124,465.113617 206.497559,465.584991 203.279419,466.338379 
	C201.977325,471.309357 200.410370,477.291504 199.073746,482.394318 
	C201.442429,484.139038 202.882156,485.199524 204.321884,486.260010 
	C202.849472,487.891113 201.377075,489.522186 199.155792,491.982880 
	C200.499405,496.738678 202.136642,502.533752 203.773880,508.328796 
	C204.156952,508.026154 204.540039,507.723511 204.923111,507.420868 
	C206.660217,507.776154 208.397339,508.131409 210.134445,508.486664 
	C209.568756,510.476044 209.003067,512.465393 208.437378,514.454773 
	C207.959564,514.766968 207.481766,515.079163 207.003952,515.391357 
	C211.059540,519.877869 215.115128,524.364441 219.170715,528.850952 
	C219.749817,528.005615 220.328918,527.160278 220.908035,526.314880 
	C222.750519,525.768494 224.593018,525.222107 226.435501,524.675659 
	C226.800903,526.601501 227.166306,528.527344 227.784744,531.786743 
	C231.940918,532.770142 237.019440,534.054138 242.145248,535.108154 
	C243.059265,535.296082 244.363022,534.773376 245.144928,534.149963 
	C246.417496,533.135376 247.408142,531.767212 248.517761,530.548218 
	C249.735809,532.097229 250.953873,533.646240 252.745621,535.924805 
	C258.005310,534.494019 263.987152,532.866821 268.805969,531.556030 
	C269.394836,528.306946 269.719452,526.515625 270.044128,524.724304 
	C272.023285,525.363708 274.002472,526.003174 275.981628,526.642578 
	C276.253418,527.050476 276.525238,527.458435 276.797028,527.866333 
	C281.218201,523.730652 285.639343,519.595032 290.060516,515.459351 
	C289.337402,514.996033 288.614288,514.532654 287.891174,514.069275 
	C287.336273,512.250183 286.781342,510.431091 286.226440,508.612000 
	C288.117126,508.190857 290.007843,507.769714 293.154236,507.068878 
	C294.450989,502.346436 296.044037,496.545074 297.336273,491.839203 
	C294.902466,489.510468 293.478241,488.147766 292.054047,486.785034 
	C293.513153,485.732086 295.002014,484.716614 296.409088,483.598236 
	C296.735596,483.338776 296.783173,482.728424 296.957489,481.457764 
z"/>
<path fill="#8D57F7" opacity="1.000000" stroke="none" 
	d="
M697.880127,499.271667 
	C706.290588,504.811707 714.508850,503.903503 723.166809,499.636658 
	C725.162659,503.516235 727.107422,507.296448 729.016541,511.007385 
	C717.314758,521.181152 695.385620,518.604736 683.513489,505.916473 
	C672.057739,493.673218 672.317749,475.691193 684.125427,463.603302 
	C695.961731,451.486115 717.865601,449.145203 728.989746,459.148254 
	C727.203979,462.709595 725.363464,466.380005 723.315063,470.465149 
	C715.998352,466.977692 708.545715,465.142822 701.269226,469.144745 
	C698.083374,470.896912 694.981628,473.640198 693.067505,476.700165 
	C688.419739,484.129974 690.324829,492.135681 697.880127,499.271667 
z"/>
<path fill="#8D57F7" opacity="1.000000" stroke="none" 
	d="
M434.997070,516.022583 
	C428.205109,516.022583 421.912109,516.022583 415.298676,516.022583 
	C415.298676,495.364502 415.298676,475.120148 415.298676,454.452362 
	C426.787781,454.452362 438.331940,454.452362 450.246033,454.452362 
	C450.246033,458.343964 450.246033,462.221100 450.246033,466.625305 
	C443.294647,466.625305 436.539734,466.625305 429.420471,466.625305 
	C429.420471,470.701935 429.420471,474.262054 429.420471,478.616394 
	C434.632935,478.616394 439.737732,478.871918 444.803284,478.535950 
	C448.886353,478.265106 450.194580,479.785706 449.743225,483.669067 
	C449.481140,485.924133 449.695526,488.234589 449.695526,491.166199 
	C442.711884,491.166199 436.289490,491.166199 429.462524,491.166199 
	C429.462524,495.358765 429.462524,498.910187 429.462524,503.416809 
	C434.622192,503.416809 439.877838,503.702942 445.086060,503.328949 
	C449.487274,503.012878 451.256134,504.410553 450.653625,508.877075 
	C450.370239,510.977905 450.605103,513.148621 450.605103,516.022644 
	C445.336578,516.022644 440.416290,516.022644 434.997070,516.022583 
z"/>
<path fill="#8D57F7" opacity="1.000000" stroke="none" 
	d="
M632.849243,457.550537 
	C632.849182,457.550537 632.819763,457.250732 633.240234,456.984375 
	C635.723877,456.542053 637.832336,456.576233 639.840088,456.143219 
	C643.293152,455.398529 645.731323,456.495575 647.114136,459.673981 
	C649.486633,465.127014 651.770447,470.619232 654.043396,476.114929 
	C658.705750,487.387878 663.220459,498.723938 668.048584,509.925110 
	C669.548645,513.405396 668.208862,514.674805 665.158997,514.895325 
	C658.256775,515.394592 656.266968,513.638123 655.155273,506.801453 
	C654.587952,503.312286 652.442749,501.207886 648.866760,501.263519 
	C643.243103,501.351044 637.625061,501.910156 632.002686,501.943512 
	C627.881042,501.967987 625.647583,503.368774 624.798340,507.712128 
	C623.470581,514.502991 618.873230,516.148254 612.393860,512.814087 
	C615.321594,504.822632 618.295898,496.878601 621.122986,488.882538 
	C621.993225,486.421234 622.461243,483.817749 623.113403,481.279358 
	C623.113403,481.279358 623.049194,481.142365 623.460144,481.034119 
	C625.577759,477.621124 627.284424,474.316345 629.048950,471.148376 
	C629.194031,471.333313 629.281250,471.381378 629.368530,471.429443 
	C629.249695,471.283173 629.130859,471.136902 629.053711,470.606201 
	C629.358765,468.437622 629.622131,466.653442 629.885498,464.869293 
	C629.885498,464.869293 629.930786,464.953644 630.204224,464.780273 
	C631.268127,462.254822 632.058655,459.902679 632.849243,457.550537 
M641.910645,476.881470 
	C641.474609,476.048645 641.038574,475.215790 640.189697,473.594482 
	C637.887268,479.666229 635.861328,485.008636 633.645752,490.851196 
	C638.421936,490.851196 642.489197,490.851196 647.175781,490.851196 
	C645.399597,486.191467 643.759521,481.888733 641.910645,476.881470 
z"/>
<path fill="#8D57F7" opacity="1.000000" stroke="none" 
	d="
M322.314941,505.956818 
	C322.315186,488.540039 322.315186,471.615204 322.315186,454.352600 
	C334.532135,454.352600 346.232025,454.352600 358.203430,454.352600 
	C358.203430,458.320618 358.203430,462.090149 358.203430,466.499207 
	C351.358948,466.499207 344.475281,466.499207 337.196655,466.499207 
	C337.196655,470.673950 337.196655,474.219391 337.196655,478.548584 
	C343.643555,478.548584 350.003143,478.548584 356.580872,478.548584 
	C356.580872,483.094452 356.580872,486.864075 356.580872,491.193542 
	C350.147858,491.193542 343.891571,491.193542 336.988464,491.193542 
	C336.988464,499.609222 336.988464,507.498596 336.988464,515.710754 
	C331.933624,515.710754 327.522034,515.710754 322.314697,515.710754 
	C322.314697,512.610168 322.314697,509.529480 322.314941,505.956818 
z"/>
<path fill="#8C53FB" opacity="1.000000" stroke="none" 
	d="
M770.977051,466.319275 
	C770.164429,466.404785 769.351685,466.490295 767.802002,466.326477 
	C763.127319,466.180145 759.189636,466.283112 755.252014,466.386108 
	C754.701965,466.468658 754.151855,466.551178 752.910156,466.635559 
	C751.818054,468.707489 751.106812,470.772919 751.075623,472.848541 
	C750.983093,478.988647 752.073120,479.942169 758.319885,479.973022 
	C763.127808,479.996735 767.935547,480.045685 772.743408,480.083435 
	C772.724060,482.853210 772.704651,485.622955 772.182983,488.768921 
	C767.603210,489.440887 763.518799,489.665955 759.450989,490.060883 
	C757.263184,490.273285 755.103699,490.777283 752.931396,491.149689 
	C752.799988,491.460815 752.668579,491.771942 752.076904,492.716370 
	C751.629578,495.426147 751.759644,497.509949 751.630920,499.577576 
	C751.376709,503.658325 753.155457,505.337494 757.244751,505.027008 
	C760.221252,504.801025 763.228882,504.984924 766.222595,504.983795 
	C769.461731,504.982605 772.062805,505.344269 772.127869,509.743469 
	C772.194092,514.215820 769.856812,515.046875 766.197998,515.013672 
	C758.788452,514.946289 751.360962,515.268311 743.980164,514.804626 
	C742.252686,514.696106 739.257507,512.096924 739.255859,510.640869 
	C739.235596,493.215942 739.620422,475.789001 740.122498,458.369019 
	C740.149841,457.421051 742.107361,455.799957 743.241394,455.731415 
	C750.427429,455.296906 757.633789,455.097748 764.835083,455.044769 
	C771.429932,454.996277 772.775757,456.590790 771.977173,463.008118 
	C771.836853,464.135834 771.320007,465.216736 770.977051,466.319275 
z"/>
<path fill="#8D57F7" opacity="1.000000" stroke="none" 
	d="
M531.998291,454.030609 
	C537.792236,454.030640 543.086548,454.030640 548.716675,454.030640 
	C548.716675,458.379578 548.716675,462.252869 548.716675,466.724884 
	C545.361389,466.724884 542.220093,466.937988 539.120605,466.668610 
	C535.598022,466.362457 534.519348,467.667297 534.562012,471.161835 
	C534.724915,484.484497 534.627014,497.810425 534.603394,511.135101 
	C534.600830,512.590576 534.449158,514.045776 534.352173,515.755737 
	C529.611084,515.755737 525.200806,515.755737 520.168945,515.755737 
	C520.168945,499.462738 520.168945,483.408936 520.168945,466.903931 
	C515.134583,466.903931 510.702698,466.903931 505.827576,466.903931 
	C505.827576,462.577942 505.827576,458.703217 505.827576,454.030579 
	C514.331055,454.030579 522.914856,454.030579 531.998291,454.030609 
z"/>
<path fill="#8C53FB" opacity="1.000000" stroke="none" 
	d="
M496.724396,480.059021 
	C496.764343,483.057556 496.804291,486.056061 496.333984,489.519226 
	C488.460663,490.920258 480.604279,487.908478 474.085266,492.273468 
	C474.372162,495.131439 475.031799,497.604034 474.771881,499.975861 
	C474.247986,504.755981 475.790253,506.309998 480.573517,505.703369 
	C484.493408,505.206177 488.481598,505.273285 492.430176,504.969116 
	C496.894440,504.625305 495.897949,507.812073 496.044128,510.324432 
	C496.203033,513.056030 496.046326,515.160645 492.254486,515.057312 
	C484.285797,514.840088 476.306213,515.062012 468.332825,514.963623 
	C463.880371,514.908691 463.108490,513.002625 463.157074,508.545990 
	C463.256989,499.377350 462.618683,490.200592 462.284180,481.027191 
	C462.240967,479.965851 462.197754,478.904541 462.584229,477.313721 
	C463.319214,476.228180 463.905457,475.661530 463.884827,475.117859 
	C463.734406,471.152954 463.721893,467.155884 463.167725,463.239471 
	C462.322693,457.266937 463.189148,455.977234 469.043152,455.962311 
	C476.201965,455.944061 483.361450,456.012512 490.519409,455.932892 
	C493.699677,455.897522 496.223907,455.665222 496.206879,460.400452 
	C496.190735,464.882416 494.122253,465.237946 490.705750,465.067047 
	C487.384430,464.900879 484.039398,464.893982 480.722870,465.103241 
	C479.429688,465.184845 478.185822,466.047577 476.919464,466.554443 
	C476.919464,466.554443 476.743591,466.803741 476.312195,466.951721 
	C476.006195,470.763367 476.131622,474.427032 476.257080,478.090729 
	C476.381287,478.201965 476.505493,478.313171 476.990723,478.909851 
	C483.809296,479.616516 490.266846,479.837769 496.724396,480.059021 
z"/>
<path fill="#8C53FB" opacity="1.000000" stroke="none" 
	d="
M382.812836,501.930725 
	C382.858276,502.142700 382.903687,502.354706 382.969727,503.246338 
	C383.202728,504.818726 383.415161,505.711517 383.607422,506.519592 
	C385.640991,505.947449 387.325623,505.272522 389.069458,505.038452 
	C390.870361,504.796692 392.728851,504.982483 394.562134,504.983093 
	C403.407196,504.986023 403.984772,505.736908 401.575195,514.042542 
	C392.603485,514.042542 383.638641,513.873718 374.685425,514.122437 
	C370.906219,514.227539 369.851990,512.979492 369.892273,509.279175 
	C370.070007,492.948151 369.963684,476.614136 369.990326,460.281219 
	C369.992401,458.994171 370.225189,457.707520 370.341095,456.519958 
	C379.851959,454.596527 382.006805,456.343292 382.007904,465.647278 
	C382.009003,474.980377 381.946259,484.314117 382.042664,493.646210 
	C382.071198,496.410095 382.543732,499.169342 382.812836,501.930725 
z"/>
<path fill="#8E5EEF" opacity="1.000000" stroke="none" 
	d="
M622.880615,481.516663 
	C622.461243,483.817749 621.993225,486.421234 621.122986,488.882538 
	C618.295898,496.878601 615.321594,504.822632 612.393860,512.814087 
	C618.873230,516.148254 623.470581,514.502991 624.798340,507.712128 
	C625.647583,503.368774 627.881042,501.967987 632.002686,501.943512 
	C637.625061,501.910156 643.243103,501.351044 648.866760,501.263519 
	C652.442749,501.207886 654.587952,503.312286 655.155273,506.801453 
	C656.266968,513.638123 658.256775,515.394592 665.158997,514.895325 
	C668.208862,514.674805 669.548645,513.405396 668.048584,509.925110 
	C663.220459,498.723938 658.705750,487.387878 654.043396,476.114929 
	C651.770447,470.619232 649.486633,465.127014 647.114136,459.673981 
	C645.731323,456.495575 643.293152,455.398529 639.840088,456.143219 
	C637.832336,456.576233 635.723877,456.542053 633.328369,456.862244 
	C634.002686,456.007843 634.910706,454.276062 636.031494,454.125336 
	C646.125183,452.767853 646.656006,453.139893 650.558655,462.747009 
	C657.065918,478.765869 663.549500,494.794312 670.021179,510.827576 
	C670.632568,512.342224 671.088989,513.919434 671.810425,516.033203 
	C667.207825,516.033203 663.072632,516.203003 658.968201,515.922180 
	C657.842102,515.845154 656.437927,514.635071 655.814392,513.564514 
	C654.741272,511.722260 653.996887,509.629883 653.448975,507.554230 
	C652.664185,504.581238 650.846130,503.697754 647.935242,503.796692 
	C643.114685,503.960510 638.264648,504.104584 633.464661,503.748962 
	C629.749512,503.473663 628.157532,505.041595 626.987793,508.308777 
	C624.204346,516.083191 624.076294,516.036743 616.043640,516.036011 
	C609.727600,516.035400 603.390015,515.718018 597.102539,516.141785 
	C592.420959,516.457336 589.126831,515.209534 586.867615,511.020996 
	C585.852966,509.139862 584.346436,507.524048 583.023193,505.403015 
	C582.983337,505.018188 583.096558,504.908905 583.445068,504.982544 
	C585.548096,506.809631 587.200195,508.684326 589.088074,510.280090 
	C590.744812,511.680450 592.517029,513.319336 594.507263,513.856445 
	C597.079651,514.550781 599.919373,514.254944 602.615234,514.384094 
	C602.344482,512.142273 602.102722,510.140259 601.894409,508.104980 
	C601.927917,508.071716 601.994873,508.005219 601.994873,508.005219 
	C604.327332,510.055420 606.659790,512.105652 609.269897,514.400024 
	C613.594177,503.847534 618.121033,492.800751 622.880615,481.516663 
z"/>
<path fill="#9672DB" opacity="1.000000" stroke="none" 
	d="
M382.897064,501.475464 
	C382.543732,499.169342 382.071198,496.410095 382.042664,493.646210 
	C381.946259,484.314117 382.009003,474.980377 382.007904,465.647278 
	C382.006805,456.343292 379.851959,454.596527 370.341095,456.519958 
	C370.225189,457.707520 369.992401,458.994171 369.990326,460.281219 
	C369.963684,476.614136 370.070007,492.948151 369.892273,509.279175 
	C369.851990,512.979492 370.906219,514.227539 374.685425,514.122437 
	C383.638641,513.873718 392.603485,514.042542 401.575195,514.042542 
	C403.984772,505.736908 403.407196,504.986023 394.562134,504.983093 
	C392.728851,504.982483 390.870361,504.796692 389.069458,505.038452 
	C387.325623,505.272522 385.640991,505.947449 383.607422,506.519592 
	C383.415161,505.711517 383.202728,504.818726 382.986298,503.571167 
	C389.798615,503.216400 396.614960,503.216400 403.917175,503.216400 
	C403.917175,507.544464 403.917175,511.441528 403.917175,515.716309 
	C392.281006,515.716309 380.718750,515.716309 368.856598,515.716309 
	C368.856598,495.179504 368.856598,474.791473 368.856598,454.178162 
	C373.564423,454.178162 377.855255,454.178162 382.981293,454.178162 
	C382.981293,469.870911 382.981293,485.445557 382.897064,501.475464 
z"/>
<path fill="#9672DB" opacity="1.000000" stroke="none" 
	d="
M771.346924,466.478210 
	C771.320007,465.216736 771.836853,464.135834 771.977173,463.008118 
	C772.775757,456.590790 771.429932,454.996277 764.835083,455.044769 
	C757.633789,455.097748 750.427429,455.296906 743.241394,455.731415 
	C742.107361,455.799957 740.149841,457.421051 740.122498,458.369019 
	C739.620422,475.789001 739.235596,493.215942 739.255859,510.640869 
	C739.257507,512.096924 742.252686,514.696106 743.980164,514.804626 
	C751.360962,515.268311 758.788452,514.946289 766.197998,515.013672 
	C769.856812,515.046875 772.194092,514.215820 772.127869,509.743469 
	C772.062805,505.344269 769.461731,504.982605 766.222595,504.983795 
	C763.228882,504.984924 760.221252,504.801025 757.244751,505.027008 
	C753.155457,505.337494 751.376709,503.658325 751.630920,499.577576 
	C751.759644,497.509949 751.629578,495.426147 751.873657,493.180420 
	C752.276978,493.484100 752.513550,493.949127 752.555847,494.431183 
	C753.334045,503.314087 753.329163,503.314545 762.219666,503.314606 
	C765.847534,503.314636 769.475403,503.314606 773.504150,503.314606 
	C773.504150,507.618744 773.504150,511.481171 773.504150,515.728394 
	C761.887024,515.728394 750.348816,515.728394 738.415405,515.728394 
	C738.415405,495.329773 738.415405,474.997375 738.415405,454.313354 
	C750.052307,454.313354 761.592468,454.313354 773.833496,454.313354 
	C773.833496,457.957428 773.921204,461.547363 773.739014,465.123566 
	C773.711609,465.661011 772.422302,466.134216 771.346924,466.478210 
z"/>
<path fill="#9672DB" opacity="1.000000" stroke="none" 
	d="
M462.188263,481.485199 
	C462.618683,490.200592 463.256989,499.377350 463.157074,508.545990 
	C463.108490,513.002625 463.880371,514.908691 468.332825,514.963623 
	C476.306213,515.062012 484.285797,514.840088 492.254486,515.057312 
	C496.046326,515.160645 496.203033,513.056030 496.044128,510.324432 
	C495.897949,507.812073 496.894440,504.625305 492.430176,504.969116 
	C488.481598,505.273285 484.493408,505.206177 480.573517,505.703369 
	C475.790253,506.309998 474.247986,504.755981 474.771881,499.975861 
	C475.031799,497.604034 474.372162,495.131439 474.085266,492.273468 
	C480.604279,487.908478 488.460663,490.920258 496.270508,489.964355 
	C495.702545,490.459106 494.707703,491.363403 493.669373,491.416443 
	C490.182404,491.594513 486.679840,491.447815 483.183441,491.464539 
	C477.304718,491.492676 474.285461,496.321045 476.990845,501.741821 
	C477.444733,502.651337 479.398987,503.202942 480.680115,503.240875 
	C486.145264,503.402771 491.617920,503.309753 497.495239,503.309753 
	C497.495239,507.577759 497.495239,511.445862 497.495239,515.701965 
	C485.902100,515.701965 474.349579,515.701965 462.092346,515.701965 
	C462.092346,504.442352 462.092346,493.192780 462.188263,481.485199 
z"/>
<path fill="#8E5EEF" opacity="1.000000" stroke="none" 
	d="
M590.010742,456.131714 
	C596.821411,458.541168 599.637817,463.801910 600.289673,470.582611 
	C600.978027,477.743439 598.881775,483.993774 592.764404,487.905609 
	C588.606079,490.564667 589.166931,492.354523 592.029968,495.431519 
	C595.524902,499.187683 598.567871,503.364349 601.900635,507.682190 
	C601.994873,508.005219 601.927917,508.071716 601.532288,508.051666 
	C599.781555,507.241425 598.127014,506.720673 597.127625,505.610352 
	C594.177185,502.332092 591.435364,498.860291 588.705200,495.390869 
	C584.900146,490.555634 585.671204,489.108826 590.927368,485.943207 
	C593.827942,484.196289 596.904297,481.004211 597.731812,477.887604 
	C599.953186,469.520996 595.924377,462.781525 590.011963,456.828979 
	C590.015198,456.596558 590.010742,456.131714 590.010742,456.131714 
z"/>
<path fill="#9672DB" opacity="1.000000" stroke="none" 
	d="
M477.385803,466.641541 
	C478.185822,466.047577 479.429688,465.184845 480.722870,465.103241 
	C484.039398,464.893982 487.384430,464.900879 490.705750,465.067047 
	C494.122253,465.237946 496.190735,464.882416 496.206879,460.400452 
	C496.223907,455.665222 493.699677,455.897522 490.519409,455.932892 
	C483.361450,456.012512 476.201965,455.944061 469.043152,455.962311 
	C463.189148,455.977234 462.322693,457.266937 463.167725,463.239471 
	C463.721893,467.155884 463.734406,471.152954 463.884827,475.117859 
	C463.905457,475.661530 463.319214,476.228180 462.651184,476.919861 
	C462.288452,469.614960 462.288452,462.174377 462.288452,454.352905 
	C473.972565,454.352905 485.508453,454.352905 497.476807,454.352905 
	C497.476807,458.188232 497.476807,462.072571 497.476807,466.728577 
	C490.997772,466.728577 484.424957,466.728577 477.385803,466.641541 
z"/>
<path fill="#9672DB" opacity="1.000000" stroke="none" 
	d="
M571.106079,515.845703 
	C566.989746,515.845703 562.873413,515.845703 557.939758,515.845703 
	C557.939758,498.502899 557.939758,481.212006 558.228882,463.462433 
	C558.517944,463.003754 558.985352,463.018738 558.988525,463.485352 
	C558.997986,479.251190 559.099121,494.551331 558.945129,509.848938 
	C558.905640,513.770508 560.290649,515.481995 564.169556,514.980042 
	C566.431519,514.687378 568.677734,514.273010 570.962097,514.235535 
	C571.030823,514.987000 571.068420,515.416382 571.106079,515.845703 
z"/>
<path fill="#9672DB" opacity="1.000000" stroke="none" 
	d="
M772.722046,479.706543 
	C767.935547,480.045685 763.127808,479.996735 758.319885,479.973022 
	C752.073120,479.942169 750.983093,478.988647 751.075623,472.848541 
	C751.106812,470.772919 751.818054,468.707489 752.491455,466.634521 
	C752.369568,478.486603 752.369995,478.432953 764.078796,478.527985 
	C766.954712,478.551331 769.826843,479.049713 772.722046,479.706543 
z"/>
<path fill="#9672DB" opacity="1.000000" stroke="none" 
	d="
M180.014297,516.845032 
	C179.901199,517.557983 179.808105,518.124878 179.668503,518.136597 
	C177.294968,518.335388 174.915649,518.465210 172.537613,518.610352 
	C172.684540,517.266968 172.421555,515.024536 173.050293,514.737854 
	C175.591675,513.579102 178.506531,512.649536 180.014297,516.845032 
z"/>
<path fill="#9672DB" opacity="1.000000" stroke="none" 
	d="
M753.392456,491.252808 
	C755.103699,490.777283 757.263184,490.273285 759.450989,490.060883 
	C763.518799,489.665955 767.603210,489.440887 772.156860,489.184204 
	C771.616333,489.973114 770.621155,491.333038 769.579163,491.369965 
	C764.343994,491.555328 759.096558,491.394897 753.392456,491.252808 
z"/>
<path fill="#9672DB" opacity="1.000000" stroke="none" 
	d="
M496.705933,479.685059 
	C490.266846,479.837769 483.809296,479.616516 477.130981,479.116882 
	C483.502625,478.996033 490.095062,479.153564 496.705933,479.685059 
z"/>
<path fill="#8E5EEF" opacity="1.000000" stroke="none" 
	d="
M560.055481,454.151459 
	C565.382629,454.116882 570.709717,454.082306 576.505981,454.325806 
	C576.975159,454.603943 576.986511,455.042328 576.689087,455.328979 
	C570.929321,455.741272 565.467102,455.866882 560.005981,455.685425 
	C560.023193,454.969391 560.039368,454.560425 560.055481,454.151459 
z"/>
<path fill="#8E5EEF" opacity="1.000000" stroke="none" 
	d="
M629.601685,465.069672 
	C629.622131,466.653442 629.358765,468.437622 629.047729,470.610901 
	C629.000000,470.999969 628.991089,471.011536 628.991089,471.011536 
	C627.284424,474.316345 625.577759,477.621124 623.525513,480.996002 
	C625.225891,475.800751 627.271912,470.535400 629.601685,465.069672 
z"/>
<path fill="#8E5EEF" opacity="1.000000" stroke="none" 
	d="
M576.804504,497.195557 
	C575.419373,496.282013 574.034180,495.368500 572.200684,494.449188 
	C571.534485,494.214874 571.271484,494.065369 570.703552,493.764160 
	C570.593628,492.140778 570.743713,490.748169 570.893799,489.355560 
	C571.536377,489.188446 572.178955,489.021362 572.821533,488.854248 
	C574.235596,491.553589 575.649658,494.252930 576.998291,497.012451 
	C576.932800,497.072571 576.804504,497.195557 576.804504,497.195557 
z"/>
<path fill="#8E5EEF" opacity="1.000000" stroke="none" 
	d="
M582.927002,505.073090 
	C581.204895,503.077301 579.539185,501.026611 577.859741,498.562653 
	C577.845947,498.149384 578.025513,497.965118 578.386414,497.937622 
	C582.328491,496.495361 584.177429,497.221344 583.316711,501.509064 
	C583.095154,502.612610 583.162109,503.774048 583.096558,504.908905 
	C583.096558,504.908905 582.983337,505.018188 582.927002,505.073090 
z"/>
<path fill="#9672DB" opacity="1.000000" stroke="none" 
	d="
M476.401978,477.645508 
	C476.131622,474.427032 476.006195,470.763367 476.165649,466.994141 
	C476.482635,470.325836 476.514740,473.763062 476.401978,477.645508 
z"/>
<path fill="#8E5EEF" opacity="1.000000" stroke="none" 
	d="
M571.447144,515.747192 
	C571.068420,515.416382 571.030823,514.987000 570.983215,514.016724 
	C570.973267,513.475769 571.006531,513.035706 571.313538,512.745361 
	C571.739197,507.390442 571.857849,502.325867 571.976501,497.261292 
	C571.913757,503.390411 571.851013,509.519501 571.447144,515.747192 
z"/>
<path fill="#9672DB" opacity="1.000000" stroke="none" 
	d="
M572.027649,496.858582 
	C571.857849,502.325867 571.739197,507.390442 571.308655,512.274414 
	C570.977112,507.062805 570.957397,502.031860 570.950439,496.750732 
	C570.950195,496.334045 570.937378,496.167542 570.939941,495.666992 
	C570.958069,494.886902 570.960754,494.440918 570.963501,493.994904 
	C571.271484,494.065369 571.534485,494.214874 571.860291,494.643921 
	C572.005066,495.381561 572.041931,495.918701 572.027649,496.858582 
z"/>
<path fill="#9672DB" opacity="1.000000" stroke="none" 
	d="
M755.666138,466.541138 
	C759.189636,466.283112 763.127319,466.180145 767.399780,466.229889 
	C763.849792,466.487091 759.965027,466.591614 755.666138,466.541138 
z"/>
<path fill="#8E5EEF" opacity="1.000000" stroke="none" 
	d="
M581.003845,454.193420 
	C582.736511,454.357422 584.469238,454.521423 586.302734,455.029205 
	C586.289429,455.896149 586.175232,456.419312 585.711487,456.821228 
	C583.573303,456.145691 581.784729,455.591400 580.201782,454.945282 
	C580.673584,454.694397 580.872437,454.474396 581.003845,454.193420 
z"/>
<path fill="#8E5EEF" opacity="1.000000" stroke="none" 
	d="
M632.588318,457.810608 
	C632.058655,459.902679 631.268127,462.254822 630.156433,464.777100 
	C630.665955,462.655029 631.496704,460.362854 632.588318,457.810608 
z"/>
<path fill="#9672DB" opacity="1.000000" stroke="none" 
	d="
M559.650269,454.116272 
	C560.039368,454.560425 560.023193,454.969391 559.736938,455.919769 
	C559.302612,457.633606 559.138428,458.806061 558.743896,459.987213 
	C558.513550,459.995941 558.052795,460.012054 558.052795,460.012054 
	C558.450256,458.035065 558.847656,456.058044 559.650269,454.116272 
z"/>
<path fill="#9672DB" opacity="1.000000" stroke="none" 
	d="
M586.061096,456.942444 
	C586.175232,456.419312 586.289429,455.896149 586.619141,455.208679 
	C587.714844,455.259521 588.594971,455.474701 589.742920,455.910828 
	C590.010742,456.131714 590.015198,456.596558 589.616089,456.806885 
	C588.165039,456.992279 587.113037,456.967346 586.061096,456.942444 
z"/>
<path fill="#8E5EEF" opacity="1.000000" stroke="none" 
	d="
M558.016113,460.383148 
	C558.052795,460.012054 558.513550,459.995941 558.997253,460.173828 
	C559.315735,461.240692 559.150574,462.129730 558.985352,463.018738 
	C558.985352,463.018738 558.517944,463.003754 558.285339,462.995880 
	C558.028320,462.243408 558.003906,461.498840 558.016113,460.383148 
z"/>
<path fill="#9672DB" opacity="1.000000" stroke="none" 
	d="
M580.605469,454.107178 
	C580.872437,454.474396 580.673584,454.694397 579.825684,454.937225 
	C578.491577,455.028107 577.739014,455.035217 576.986511,455.042328 
	C576.986511,455.042328 576.975159,454.603943 576.967590,454.384949 
	C578.042358,454.117615 579.124756,454.069244 580.605469,454.107178 
z"/>
<path fill="#8E5EEF" opacity="1.000000" stroke="none" 
	d="
M577.754883,498.240173 
	C577.346252,498.195831 577.113953,497.972198 576.885742,497.427795 
	C576.804504,497.195557 576.932800,497.072571 577.201172,497.137115 
	C577.724976,497.405090 577.910278,497.659576 578.025513,497.965118 
	C578.025513,497.965118 577.845947,498.149384 577.754883,498.240173 
z"/>
<path fill="#FCF8FC" opacity="1.000000" stroke="none" 
	d="
M296.958313,481.868652 
	C296.783173,482.728424 296.735596,483.338776 296.409088,483.598236 
	C295.002014,484.716614 293.513153,485.732086 292.054047,486.785034 
	C293.478241,488.147766 294.902466,489.510468 297.336273,491.839203 
	C296.044037,496.545074 294.450989,502.346436 293.154236,507.068878 
	C290.007843,507.769714 288.117126,508.190857 286.226440,508.612000 
	C286.781342,510.431091 287.336273,512.250183 287.891174,514.069275 
	C288.614288,514.532654 289.337402,514.996033 290.060516,515.459351 
	C285.639343,519.595032 281.218201,523.730652 276.797028,527.866333 
	C276.525238,527.458435 276.253418,527.050476 275.981628,526.642578 
	C274.002472,526.003174 272.023285,525.363708 270.044128,524.724304 
	C269.719452,526.515625 269.394836,528.306946 268.805969,531.556030 
	C263.987152,532.866821 258.005310,534.494019 252.745621,535.924805 
	C250.953873,533.646240 249.735809,532.097229 248.517761,530.548218 
	C247.408142,531.767212 246.417496,533.135376 245.144928,534.149963 
	C244.363022,534.773376 243.059265,535.296082 242.145248,535.108154 
	C237.019440,534.054138 231.940918,532.770142 227.784744,531.786743 
	C227.166306,528.527344 226.800903,526.601501 226.435516,524.675659 
	C224.593018,525.222107 222.750519,525.768494 220.908035,526.314880 
	C220.328918,527.160278 219.749817,528.005615 219.170715,528.850952 
	C215.115128,524.364441 211.059540,519.877869 207.003952,515.391357 
	C207.481766,515.079163 207.959564,514.766968 208.437378,514.454773 
	C209.003067,512.465393 209.568756,510.476044 210.134445,508.486664 
	C208.397339,508.131409 206.660217,507.776154 204.923111,507.420868 
	C204.540039,507.723511 204.156952,508.026154 203.773880,508.328796 
	C202.136642,502.533752 200.499405,496.738678 199.155792,491.982880 
	C201.377075,489.522186 202.849472,487.891113 204.321884,486.260010 
	C202.882156,485.199524 201.442429,484.139038 199.073746,482.394318 
	C200.410370,477.291504 201.977325,471.309357 203.279419,466.338379 
	C206.497559,465.584991 208.511124,465.113617 210.524689,464.642212 
	C209.839478,462.951111 209.154266,461.260010 208.469040,459.568909 
	C207.885605,459.184204 207.302170,458.799500 206.718719,458.414795 
	C211.057739,454.047485 215.396759,449.680206 219.735779,445.312927 
	C220.121475,445.945312 220.507156,446.577698 220.892853,447.210083 
	C222.751373,447.727753 224.609879,448.245422 226.468384,448.763092 
	C226.863220,447.025238 227.258072,445.287384 227.652924,443.549530 
	C227.358932,443.151062 227.064941,442.752594 226.770950,442.354156 
	C232.528320,440.693909 238.285690,439.033661 243.154755,437.629547 
	C245.494507,439.997955 246.971695,441.493195 248.448853,442.988464 
	C249.615082,441.586975 250.781311,440.185486 252.835754,437.716614 
	C257.779572,439.013123 263.746429,440.577911 268.707489,441.878967 
	C269.341125,445.005005 269.729889,446.923065 270.118652,448.841125 
	C271.990540,448.219391 273.862427,447.597656 275.734314,446.975922 
	C276.099335,446.389862 276.464355,445.803833 276.829376,445.217773 
	C281.083954,449.565063 285.338501,453.912384 289.593079,458.259674 
	C289.116333,458.573608 288.639618,458.887512 288.162872,459.201447 
	C287.548950,461.196442 286.935028,463.191467 286.321106,465.186493 
	C288.158691,465.425964 289.996277,465.665466 293.096649,466.069550 
	C294.248932,470.662170 295.603210,476.059967 296.958313,481.868652 
M215.849579,490.249329 
	C217.428909,503.842194 225.001541,513.022217 237.540161,517.567810 
	C249.815216,522.017883 261.363586,519.331665 270.739166,510.335846 
	C280.260895,501.199890 283.296783,489.781342 279.377991,476.991150 
	C274.752197,461.893707 259.231110,452.284515 244.247726,454.343292 
	C226.848526,456.734009 214.265610,471.893066 215.849579,490.249329 
z"/>
<path fill="#F9EEFE" opacity="1.000000" stroke="none" 
	d="
M642.015015,477.233765 
	C643.759521,481.888733 645.399597,486.191467 647.175781,490.851196 
	C642.489197,490.851196 638.421936,490.851196 633.645752,490.851196 
	C635.861328,485.008636 637.887268,479.666229 640.189697,473.594482 
	C641.038574,475.215790 641.474609,476.048645 642.015015,477.233765 
z"/>
<path fill="#8E5EEF" opacity="1.000000" stroke="none" 
	d="
M629.005981,470.995300 
	C629.130859,471.136902 629.249695,471.283173 629.368530,471.429443 
	C629.281250,471.381378 629.194031,471.333313 629.048950,471.148376 
	C628.991089,471.011536 629.000000,470.999969 629.005981,470.995300 
z"/>
<path fill="#8C53FB" opacity="1.000000" stroke="none" 
	d="
M578.386414,497.937622 
	C577.910278,497.659576 577.724976,497.405090 577.266602,497.076965 
	C575.649658,494.252930 574.235596,491.553589 572.821533,488.854248 
	C572.178955,489.021362 571.536377,489.188446 570.893799,489.355560 
	C570.743713,490.748169 570.593628,492.140778 570.703552,493.764160 
	C570.960754,494.440918 570.958069,494.886902 570.786743,495.760742 
	C570.724670,496.459320 570.831238,496.730133 570.937744,497.000916 
	C570.957397,502.031860 570.977112,507.062805 571.001648,512.564697 
	C571.006531,513.035706 570.973267,513.475769 570.952148,513.694580 
	C568.677734,514.273010 566.431519,514.687378 564.169556,514.980042 
	C560.290649,515.481995 558.905640,513.770508 558.945129,509.848938 
	C559.099121,494.551331 558.997986,479.251190 558.988525,463.485352 
	C559.150574,462.129730 559.315735,461.240692 559.227661,460.165100 
	C559.138428,458.806061 559.302612,457.633606 559.735779,456.226837 
	C565.467102,455.866882 570.929321,455.741272 576.689087,455.328979 
	C577.739014,455.035217 578.491577,455.028107 579.620117,455.029053 
	C581.784729,455.591400 583.573303,456.145691 585.711487,456.821228 
	C587.113037,456.967346 588.165039,456.992279 589.612854,457.039307 
	C595.924377,462.781525 599.953186,469.520996 597.731812,477.887604 
	C596.904297,481.004211 593.827942,484.196289 590.927368,485.943207 
	C585.671204,489.108826 584.900146,490.555634 588.705200,495.390869 
	C591.435364,498.860291 594.177185,502.332092 597.127625,505.610352 
	C598.127014,506.720673 599.781555,507.241425 601.498779,508.084900 
	C602.102722,510.140259 602.344482,512.142273 602.615234,514.384094 
	C599.919373,514.254944 597.079651,514.550781 594.507263,513.856445 
	C592.517029,513.319336 590.744812,511.680450 589.088074,510.280090 
	C587.200195,508.684326 585.548096,506.809631 583.445068,504.982544 
	C583.162109,503.774048 583.095154,502.612610 583.316711,501.509064 
	C584.177429,497.221344 582.328491,496.495361 578.386414,497.937622 
M584.815186,469.811218 
	C582.846069,465.594604 578.896362,465.567383 575.095642,465.198425 
	C571.672974,464.866150 570.338806,466.769257 571.110352,469.698273 
	C572.180725,473.761597 567.508057,480.303070 574.900513,481.584198 
	C582.610535,482.920288 586.279358,478.357300 584.815186,469.811218 
M587.930176,504.745270 
	C588.555176,504.278381 589.180237,503.811493 589.805237,503.344635 
	C589.516846,503.030823 589.228455,502.716980 588.940063,502.403168 
	C588.441895,503.041870 587.943726,503.680573 587.930176,504.745270 
z"/>
<path fill="#8E5EEF" opacity="1.000000" stroke="none" 
	d="
M570.950439,496.750732 
	C570.831238,496.730133 570.724670,496.459320 570.771362,496.094788 
	C570.937378,496.167542 570.950195,496.334045 570.950439,496.750732 
z"/>
<path fill="#8D57F7" opacity="1.000000" stroke="none" 
	d="
M215.815369,489.787048 
	C214.265610,471.893066 226.848526,456.734009 244.247726,454.343292 
	C259.231110,452.284515 274.752197,461.893707 279.377991,476.991150 
	C283.296783,489.781342 280.260895,501.199890 270.739166,510.335846 
	C261.363586,519.331665 249.815216,522.017883 237.540161,517.567810 
	C225.001541,513.022217 217.428909,503.842194 215.815369,489.787048 
M256.892212,492.738495 
	C256.799591,492.695953 256.706940,492.653442 256.614319,492.610901 
	C256.756500,492.729065 256.898651,492.847260 256.909698,493.680084 
	C259.967041,498.089905 263.024384,502.499725 266.597137,507.653015 
	C269.187805,503.943054 271.189819,501.076080 273.632874,497.577484 
	C267.417236,495.881256 262.197571,494.456818 256.892212,492.738495 
M239.204773,503.716064 
	C237.743591,505.870697 236.282425,508.025299 234.364258,510.853790 
	C238.384415,512.072937 241.706848,513.080505 245.350250,514.185364 
	C245.350250,507.702087 245.350250,502.191284 245.350250,495.426941 
	C242.948471,498.668030 241.291840,500.903625 239.204773,503.716064 
M240.184540,471.306274 
	C241.768219,473.302429 243.351898,475.298584 245.470490,477.968964 
	C245.470490,471.484924 245.470490,465.994385 245.470490,459.317841 
	C241.546265,460.610992 238.209930,461.710419 234.376877,462.973511 
	C236.586273,466.151459 238.177551,468.440277 240.184540,471.306274 
M224.851288,491.565155 
	C229.318451,490.081360 233.785614,488.597534 239.361038,486.745605 
	C232.748672,484.619415 227.343735,482.881470 221.073669,480.865356 
	C221.073669,484.310944 220.847748,487.082397 221.211395,489.774200 
	C221.320450,490.581299 223.074188,491.166168 224.851288,491.565155 
M260.661926,474.164886 
	C259.252502,476.257477 257.843048,478.350037 255.657394,481.595032 
	C262.296814,479.371399 267.600006,477.595337 273.633392,475.574677 
	C271.004852,472.163971 268.950012,469.497620 266.579895,466.422180 
	C264.465729,469.194397 262.782990,471.400879 260.661926,474.164886 
z"/>
<path fill="#F9EEFE" opacity="1.000000" stroke="none" 
	d="
M584.915466,470.174805 
	C586.279358,478.357300 582.610535,482.920288 574.900513,481.584198 
	C567.508057,480.303070 572.180725,473.761597 571.110352,469.698273 
	C570.338806,466.769257 571.672974,464.866150 575.095642,465.198425 
	C578.896362,465.567383 582.846069,465.594604 584.915466,470.174805 
z"/>
<path fill="#8E5EEF" opacity="1.000000" stroke="none" 
	d="
M587.687866,504.532288 
	C587.943726,503.680573 588.441895,503.041870 588.940063,502.403168 
	C589.228455,502.716980 589.516846,503.030823 589.805237,503.344635 
	C589.180237,503.811493 588.555176,504.278381 587.687866,504.532288 
z"/>
<path fill="#F9EEFE" opacity="1.000000" stroke="none" 
	d="
M239.419983,503.427612 
	C241.291840,500.903625 242.948471,498.668030 245.350250,495.426941 
	C245.350250,502.191284 245.350250,507.702087 245.350250,514.185364 
	C241.706848,513.080505 238.384415,512.072937 234.364258,510.853790 
	C236.282425,508.025299 237.743591,505.870697 239.419983,503.427612 
z"/>
<path fill="#F9EEFE" opacity="1.000000" stroke="none" 
	d="
M239.976685,471.017700 
	C238.177551,468.440277 236.586273,466.151459 234.376877,462.973511 
	C238.209930,461.710419 241.546265,460.610992 245.470490,459.317841 
	C245.470490,465.994385 245.470490,471.484924 245.470490,477.968964 
	C243.351898,475.298584 241.768219,473.302429 239.976685,471.017700 
z"/>
<path fill="#F9EEFE" opacity="1.000000" stroke="none" 
	d="
M224.462860,491.709015 
	C223.074188,491.166168 221.320450,490.581299 221.211395,489.774200 
	C220.847748,487.082397 221.073669,484.310944 221.073669,480.865356 
	C227.343735,482.881470 232.748672,484.619415 239.361038,486.745605 
	C233.785614,488.597534 229.318451,490.081360 224.462860,491.709015 
z"/>
<path fill="#F9EEFE" opacity="1.000000" stroke="none" 
	d="
M256.977905,493.032410 
	C262.197571,494.456818 267.417236,495.881256 273.632874,497.577484 
	C271.189819,501.076080 269.187805,503.943054 266.597137,507.653015 
	C263.024384,502.499725 259.967041,498.089905 256.958252,493.338318 
	C257.006775,492.996582 256.977905,493.032410 256.977905,493.032410 
z"/>
<path fill="#F9EEFE" opacity="1.000000" stroke="none" 
	d="
M260.881104,473.886139 
	C262.782990,471.400879 264.465729,469.194397 266.579895,466.422180 
	C268.950012,469.497620 271.004852,472.163971 273.633392,475.574677 
	C267.600006,477.595337 262.296814,479.371399 255.657394,481.595032 
	C257.843048,478.350037 259.252502,476.257477 260.881104,473.886139 
z"/>
<path fill="#F9EEFE" opacity="1.000000" stroke="none" 
	d="
M257.023804,492.981018 
	C256.898651,492.847260 256.756500,492.729065 256.614319,492.610901 
	C256.706940,492.653442 256.799591,492.695953 256.935059,492.885437 
	C256.977905,493.032410 257.006775,492.996582 257.023804,492.981018 
z"/>
</svg>